<?xml version="1.0" encoding="UTF-8"?>
<!DOCTYPE svg PUBLIC "-//W3C//DTD SVG 1.1//EN" "http://www.w3.org/Graphics/SVG/1.1/DTD/svg11.dtd">
<svg xmlns="http://www.w3.org/2000/svg" version="1.1" width="500px" height="500px" style="shape-rendering:geometricPrecision; text-rendering:geometricPrecision; image-rendering:optimizeQuality; fill-rule:evenodd; clip-rule:evenodd" xmlns:xlink="http://www.w3.org/1999/xlink">
<g><path style="opacity:1" fill="#1c1917" d="M -0.5,-0.5 C 166.167,-0.5 332.833,-0.5 499.5,-0.5C 499.5,166.167 499.5,332.833 499.5,499.5C 332.833,499.5 166.167,499.5 -0.5,499.5C -0.5,332.833 -0.5,166.167 -0.5,-0.5 Z"/></g>
<g><path style="opacity:1" fill="#fdfdfd" d="M 262.5,82.5 C 262.5,83.5 262.5,84.5 262.5,85.5C 264.5,85.5 266.5,85.5 268.5,85.5C 269.833,87.8333 269.833,90.1667 268.5,92.5C 267.167,92.5 265.833,92.5 264.5,92.5C 264.5,94.1667 264.5,95.8333 264.5,97.5C 260.983,100.676 259.65,104.51 260.5,109C 259.991,110.169 259.158,111.002 258,111.5C 257.333,160.833 257.333,210.167 258,259.5C 258.915,260.328 259.581,261.328 260,262.5C 258.382,272.602 261.215,281.102 268.5,288C 278.765,290.46 286.765,287.127 292.5,278C 295.347,277.056 297.847,277.556 300,279.5C 300.667,283.167 300.667,286.833 300,290.5C 297.164,299.175 293.497,307.509 289,315.5C 286.192,323.9 287.525,331.567 293,338.5C 302.556,346.379 310.223,355.713 316,366.5C 324.053,388.182 321.053,408.182 307,426.5C 279.305,456.792 246.805,463.292 209.5,446C 182.998,430.831 170.831,407.997 173,377.5C 174.796,369.436 178.129,362.102 183,355.5C 191.505,348.337 198.505,340.004 204,330.5C 204.667,325.833 204.667,321.167 204,316.5C 200.059,308.284 196.392,299.951 193,291.5C 191.178,287.121 191.178,282.787 193,278.5C 195.064,277.409 197.231,277.242 199.5,278C 204.119,284.134 210.119,287.968 217.5,289.5C 224.834,288.677 229.668,284.677 232,277.5C 231.966,269.604 232.966,261.937 235,254.5C 236.378,209.995 237.878,165.495 239.5,121C 239.167,117.833 238.833,114.667 238.5,111.5C 237.28,111.113 236.613,110.28 236.5,109C 239.552,104.703 238.719,101.203 234,98.5C 233.505,96.5273 233.338,94.5273 233.5,92.5C 227.761,92.9818 226.094,90.6485 228.5,85.5C 230.833,85.5 233.167,85.5 235.5,85.5C 235.5,84.5 235.5,83.5 235.5,82.5C 235.66,80.8008 235.494,79.1341 235,77.5C 228.167,80 226,77.8333 228.5,71C 230.473,70.5045 232.473,70.3379 234.5,70.5C 234.5,68.5 234.5,66.5 234.5,64.5C 228.326,65.8271 226.159,63.4938 228,57.5C 229.356,56.6198 230.856,56.2865 232.5,56.5C 231.822,52.7273 233.156,49.894 236.5,48C 240.291,47.8044 243.625,46.6378 246.5,44.5C 248.167,45.8333 249.833,45.8333 251.5,44.5C 254.375,46.6378 257.709,47.8044 261.5,48C 264.844,49.894 266.178,52.7273 265.5,56.5C 266.822,56.33 267.989,56.6634 269,57.5C 269.497,59.8098 269.663,62.1432 269.5,64.5C 267.5,64.5 265.5,64.5 263.5,64.5C 263.5,66.5 263.5,68.5 263.5,70.5C 265.467,70.2606 267.301,70.5939 269,71.5C 269.497,73.8098 269.663,76.1432 269.5,78.5C 267.167,78.5 264.833,78.5 262.5,78.5C 262.5,79.8333 262.5,81.1667 262.5,82.5 Z"/></g>
<g><path style="opacity:1" fill="#757472" d="M 235.5,82.5 C 235.5,83.5 235.5,84.5 235.5,85.5C 233.167,85.5 230.833,85.5 228.5,85.5C 230.974,84.8953 233.307,83.8953 235.5,82.5 Z"/></g>
<g><path style="opacity:1" fill="#969594" d="M 262.5,82.5 C 264.361,83.8419 266.361,84.8419 268.5,85.5C 266.5,85.5 264.5,85.5 262.5,85.5C 262.5,84.5 262.5,83.5 262.5,82.5 Z"/></g>
<g><path style="opacity:1" fill="#959393" d="M 268.5,92.5 C 267.791,93.404 266.791,93.7373 265.5,93.5C 265.768,95.099 265.434,96.4324 264.5,97.5C 264.5,95.8333 264.5,94.1667 264.5,92.5C 265.833,92.5 267.167,92.5 268.5,92.5 Z"/></g>
<g><path style="opacity:1" fill="#fdfdfd" d="M 288.5,142.5 C 344.901,159.06 384.067,194.727 406,249.5C 418.526,281.986 424.359,315.652 423.5,350.5C 422.5,350.5 421.5,350.5 420.5,350.5C 422.189,370.833 418.689,390.167 410,408.5C 404.479,418.357 396.313,424.857 385.5,428C 383.527,428.495 381.527,428.662 379.5,428.5C 379.5,383.5 379.5,338.5 379.5,293.5C 384.032,293.074 388.199,294.074 392,296.5C 382.859,245.003 356.025,205.836 311.5,179C 304.283,175.558 296.95,172.391 289.5,169.5C 288.502,160.525 288.168,151.525 288.5,142.5 Z"/></g>
<g><path style="opacity:1" fill="#fdfdfd" d="M 115.5,293.5 C 116.833,293.5 118.167,293.5 119.5,293.5C 119.5,338.5 119.5,383.5 119.5,428.5C 106.775,427.281 96.9415,421.281 90,410.5C 80.3099,391.669 76.4766,371.669 78.5,350.5C 77.5,350.5 76.5,350.5 75.5,350.5C 73.1435,293.742 89.3102,243.076 124,198.5C 142.499,176.992 164.665,160.492 190.5,149C 196.303,146.454 202.303,144.621 208.5,143.5C 208.832,152.525 208.498,161.525 207.5,170.5C 161.918,188.916 130.751,221.249 114,267.5C 110.217,276.622 108.05,285.955 107.5,295.5C 109.943,293.945 112.61,293.278 115.5,293.5 Z"/></g>
<g><path style="opacity:1" fill="#1e1b19" d="M 230.5,291.5 C 232.49,314.476 233.157,337.809 232.5,361.5C 224.67,363.1 216.837,364.766 209,366.5C 205.167,366.667 203.333,364.833 203.5,361C 209.413,339.26 216.913,318.094 226,297.5C 227.332,295.34 228.832,293.34 230.5,291.5 Z"/></g>
<g><path style="opacity:1" fill="#fbfbfb" d="M 125.5,293.5 C 134.437,291.555 140.937,294.555 145,302.5C 145.667,315.5 145.667,328.5 145,341.5C 140.769,347.637 138.936,354.47 139.5,362C 139.107,369.151 140.94,375.651 145,381.5C 145.667,393.833 145.667,406.167 145,418.5C 141.462,427.188 134.962,430.521 125.5,428.5C 125.5,383.5 125.5,338.5 125.5,293.5 Z"/></g>
<g><path style="opacity:1" fill="#fcfcfc" d="M 361.5,293.5 C 365.5,293.5 369.5,293.5 373.5,293.5C 373.5,338.5 373.5,383.5 373.5,428.5C 368.223,429.069 363.223,428.235 358.5,426C 356.106,424.048 354.606,421.548 354,418.5C 353.333,406.167 353.333,393.833 354,381.5C 361.25,368.075 361.25,354.742 354,341.5C 353.333,328.167 353.333,314.833 354,301.5C 356.028,298.308 358.528,295.641 361.5,293.5 Z"/></g>
<g><path style="opacity:1" fill="#3f3c3b" d="M 115.5,293.5 C 116.919,292.549 118.585,292.216 120.5,292.5C 120.832,338.003 120.499,383.336 119.5,428.5C 119.5,383.5 119.5,338.5 119.5,293.5C 118.167,293.5 116.833,293.5 115.5,293.5 Z"/></g>
<g><path style="opacity:1" fill="#211e1c" d="M 184.5,374.5 C 193.818,374.655 195.818,378.488 190.5,386C 181.096,386.141 179.096,382.308 184.5,374.5 Z"/></g>
<g><path style="opacity:1" fill="#1d1a18" d="M 226.5,388.5 C 239.837,388.333 253.171,388.5 266.5,389C 269.167,391.333 269.167,393.667 266.5,396C 253.167,396.667 239.833,396.667 226.5,396C 223.914,393.506 223.914,391.006 226.5,388.5 Z"/></g>
<g><path style="opacity:1" fill="#23201e" d="M 204.5,390.5 C 213.24,389.717 215.907,393.217 212.5,401C 204.735,403.575 201.568,400.742 203,392.5C 203.717,391.956 204.217,391.289 204.5,390.5 Z"/></g>
<g><path style="opacity:1" fill="#211e1c" d="M 184.5,398.5 C 193.818,398.655 195.818,402.488 190.5,410C 181.096,410.141 179.096,406.308 184.5,398.5 Z"/></g>
<g><path style="opacity:1" fill="#23201e" d="M 204.5,414.5 C 213.24,413.717 215.907,417.217 212.5,425C 204.719,427.558 201.552,424.725 203,416.5C 203.717,415.956 204.217,415.289 204.5,414.5 Z"/></g>
</svg>
