<svg version="1.1" id="Layer_1" xmlns="http://www.w3.org/2000/svg" xmlns:xlink="http://www.w3.org/1999/xlink" x="0px" y="0px"
	 width="100%" viewBox="0 0 500 194" enable-background="new 0 0 500 194" xml:space="preserve">
<path fill="#1D1A18" opacity="1.000000" stroke="none" 
	d="
M314.000000,195.000000 
	C209.333359,195.000000 105.166702,195.000000 1.000042,195.000000 
	C1.000028,130.333359 1.000028,65.666725 1.000014,1.000068 
	C167.666611,1.000045 334.333221,1.000045 500.999878,1.000023 
	C500.999908,65.666595 500.999908,130.333191 500.999939,194.999893 
	C438.833344,195.000000 376.666656,195.000000 314.000000,195.000000 
M101.941673,42.250778 
	C126.693146,30.984741 149.706467,33.599625 169.962158,51.981915 
	C177.476089,58.800903 183.980515,59.950748 193.205902,55.434731 
	C213.383240,45.557503 234.671066,51.823700 246.884109,70.653130 
	C250.900345,76.845139 253.747498,83.795441 257.191040,90.519676 
	C289.247803,89.299767 321.695465,88.067230 354.142914,86.829544 
	C384.088715,85.687279 413.975311,83.924477 443.566895,78.790466 
	C452.864227,77.177422 452.884003,77.312653 454.150055,86.677803 
	C454.188995,86.965912 454.478729,87.220116 454.880737,87.848228 
	C456.229034,87.766090 457.767883,87.672348 459.512756,87.566055 
	C459.248871,85.058426 459.187012,83.053696 458.807373,81.111069 
	C457.259399,73.189453 454.897919,71.748497 446.841217,72.724426 
	C425.221283,75.343300 403.879364,79.882713 381.930847,80.288696 
	C353.615906,80.812447 325.327728,82.653542 297.017426,83.614403 
	C284.584290,84.036392 272.124939,83.685440 259.158539,83.685440 
	C259.495209,84.261955 259.264862,84.003685 259.180847,83.704346 
	C249.803284,50.293743 213.336349,36.487564 187.121109,51.964882 
	C183.371597,54.178577 179.815964,53.610809 176.651917,50.547230 
	C175.216995,49.157860 173.673279,47.879013 172.155411,46.577427 
	C142.336288,21.007351 98.452133,26.137154 75.310913,57.914352 
	C74.402412,59.161896 73.713760,60.569534 72.922668,61.902576 
	C73.336777,62.413223 73.750885,62.923866 74.164993,63.434513 
	C76.591400,61.989815 79.216637,60.795219 81.407135,59.053783 
	C88.134247,53.705761 94.694794,48.148235 101.941673,42.250778 
M65.650139,123.924362 
	C67.077110,126.365013 68.472717,128.824677 69.938087,131.242050 
	C72.387474,135.282715 73.001633,135.284073 75.454681,131.151215 
	C79.481056,124.367615 83.454285,117.552452 87.449921,110.750595 
	C87.777969,110.839828 88.106018,110.929062 88.434067,111.018295 
	C88.434067,120.205353 88.434067,129.392410 88.434067,138.579468 
	C88.864929,138.893936 89.295792,139.208389 89.726654,139.522858 
	C90.747536,138.636826 92.642174,137.765305 92.657150,136.862595 
	C92.855339,124.917542 92.789307,112.968094 92.789307,101.019753 
	C92.353806,100.705894 91.918304,100.392036 91.482811,100.078178 
	C90.125816,101.255981 88.362724,102.188637 87.479164,103.652252 
	C82.538918,111.835732 77.811272,120.147545 72.752129,128.861374 
	C67.543991,119.971436 62.825439,111.751862 57.898426,103.659195 
	C57.009266,102.198738 55.263206,101.259987 53.912762,100.080376 
	C53.515301,100.396355 53.117840,100.712334 52.720379,101.028313 
	C52.720379,107.332481 52.720383,113.636642 52.720383,119.940811 
	C52.720383,126.209351 52.720379,132.477890 52.720379,138.746429 
	C53.257286,139.009262 53.794197,139.272079 54.331104,139.534912 
	C55.162056,138.373230 56.532890,137.288452 56.711571,136.033875 
	C57.083622,133.421570 56.824966,130.719391 56.825047,128.054153 
	C56.825214,122.381012 56.825104,116.707870 56.825104,111.034737 
	C57.204865,110.998070 57.584621,110.961411 57.964382,110.924744 
	C60.384583,115.058723 62.804783,119.192696 65.650139,123.924362 
M415.356720,138.955063 
	C424.678162,135.519302 428.994720,126.800163 424.821106,118.409447 
	C423.331146,115.413956 420.275391,112.621140 417.249146,111.090530 
	C411.622192,108.244537 406.123505,110.198624 400.943146,114.384079 
	C400.943146,109.469841 400.872528,105.327156 400.965881,101.188171 
	C401.038086,97.988419 399.667999,97.553329 397.097900,98.689484 
	C397.097900,112.180321 397.097900,125.446320 397.097900,138.712311 
	C397.479156,138.985703 397.860382,139.259094 398.241638,139.532471 
	C399.481293,138.119751 400.720947,136.707031 401.947205,135.309540 
	C405.349274,138.836380 409.729797,139.764786 415.356720,138.955063 
M180.184509,130.240158 
	C180.184418,127.743645 180.065567,125.240120 180.212524,122.752296 
	C180.424484,119.164101 178.611252,119.419899 176.119110,120.399696 
	C176.119110,123.633057 176.327972,126.813347 176.023239,129.943634 
	C175.888672,131.325912 175.056290,133.193741 173.953888,133.839798 
	C165.896439,138.561783 154.308197,134.290207 151.004791,125.579552 
	C148.597198,119.230957 150.342300,112.142891 155.365753,107.866699 
	C160.674469,103.347679 168.748154,102.622757 174.966187,106.299461 
	C177.015961,107.511497 178.821472,109.302658 180.072174,105.325150 
	C173.395935,99.738052 165.984222,98.787582 158.108475,101.754913 
	C150.761765,104.522942 146.611099,110.037392 145.959457,117.921356 
	C145.262177,126.357384 148.426407,133.050095 156.027725,136.937210 
	C163.518600,140.767853 171.197006,140.319946 178.319321,135.783936 
	C179.462921,135.055603 179.588318,132.728531 180.184509,130.240158 
M371.894592,110.025146 
	C364.115967,111.807182 363.013794,112.756485 364.823669,116.343224 
	C369.815125,114.041298 375.088409,111.473785 380.131317,115.518578 
	C381.720428,116.793182 381.851746,119.885361 382.835815,122.670822 
	C379.465240,122.670822 377.467102,122.629440 375.471497,122.682465 
	C373.474915,122.735504 371.455841,122.720329 369.490784,123.022331 
	C365.214417,123.679535 362.513916,126.106171 362.166748,130.560074 
	C361.855072,134.558136 364.828339,138.549957 369.240662,138.818436 
	C373.483368,139.076630 377.803986,138.053757 382.312866,137.569885 
	C383.071838,137.932709 384.485046,138.608292 386.592987,139.615967 
	C386.592987,133.512650 386.633514,128.528244 386.584625,123.544708 
	C386.480957,112.980522 383.337860,109.918129 371.894592,110.025146 
M286.206757,131.378677 
	C286.165924,127.391991 286.674622,123.294617 285.901398,119.455444 
	C285.335510,116.645775 283.644775,113.490707 281.461273,111.705467 
	C277.665253,108.601807 268.212769,109.461197 264.514160,112.674362 
	C263.797302,113.297150 263.924042,114.890961 263.422607,117.080711 
	C269.488403,113.847389 274.475800,111.779572 279.306610,115.086823 
	C281.124512,116.331375 281.607513,119.525742 283.231384,122.955505 
	C277.571198,122.955505 273.595490,122.684364 269.672821,123.024704 
	C264.859650,123.442322 262.121613,126.418037 261.995453,130.619995 
	C261.864899,134.969467 264.739990,138.687820 269.533661,138.891617 
	C273.621155,139.065414 277.762939,137.961792 281.917938,137.418411 
	C282.748444,137.832672 284.190308,138.551926 286.206757,139.557785 
	C286.206757,136.294266 286.206757,134.301666 286.206757,131.378677 
M194.277863,111.310608 
	C193.162415,110.814384 192.046967,110.318161 190.352875,109.564522 
	C190.352875,116.458801 190.002319,122.441055 190.440994,128.364868 
	C190.998047,135.887329 195.600571,139.812195 203.139404,139.137787 
	C206.397476,138.846344 209.526733,137.114655 212.172836,136.220276 
	C213.220673,137.195221 214.435959,138.325974 215.651245,139.456726 
	C216.052155,139.150040 216.453049,138.843353 216.853958,138.536652 
	C216.853958,129.913666 216.953033,121.288048 216.724945,112.671097 
	C216.697327,111.627769 214.904129,110.631172 213.929214,109.612915 
	C213.402328,109.929810 212.875443,110.246696 212.348557,110.563591 
	C212.348557,116.362228 212.784790,122.203751 212.220200,127.946884 
	C211.703476,133.203064 207.532639,135.994919 202.337845,135.652023 
	C197.458450,135.329956 194.791382,132.671143 194.473541,127.140312 
	C194.187836,122.169044 194.363297,117.171272 194.277863,111.310608 
M108.595947,122.815460 
	C105.397209,118.756157 106.481346,111.470642 98.411522,109.443237 
	C102.494156,118.578339 105.879845,126.662567 109.721642,134.523895 
	C111.497070,138.156891 111.327576,141.136368 108.873009,144.146790 
	C106.563988,146.978699 103.797081,146.649063 100.752716,145.494400 
	C100.025452,145.218582 98.926506,145.922729 97.998512,146.176147 
	C98.484703,147.068100 98.744659,148.313309 99.494522,148.793564 
	C103.735558,151.509842 110.083031,150.158127 112.461372,145.307556 
	C118.053635,133.902252 123.101768,122.230156 128.370087,110.666023 
	C127.889885,110.280037 127.409683,109.894043 126.929474,109.508057 
	C125.662041,110.717522 123.916069,111.698112 123.209328,113.175751 
	C120.008095,119.868851 117.100304,126.702293 113.725449,134.298737 
	C111.846474,130.084045 110.379959,126.794525 108.595947,122.815460 
M355.078186,100.511581 
	C347.082977,100.511940 339.085724,100.424240 331.094757,100.608452 
	C329.908752,100.635796 328.752319,101.945580 327.582184,102.662048 
	C327.834229,103.156883 328.086243,103.651711 328.338287,104.146545 
	C332.463531,104.146545 336.588776,104.146545 341.227234,104.146545 
	C341.227234,115.863602 341.227234,127.298294 341.227234,138.532364 
	C344.914124,139.829590 345.811432,138.547577 345.770081,135.404846 
	C345.634583,125.108467 345.719208,114.809189 345.719208,104.222801 
	C350.355652,104.222801 354.478302,104.222801 358.600952,104.222801 
	C358.865356,103.734688 359.129761,103.246574 359.394165,102.758469 
	C358.254883,102.009911 357.115631,101.261360 355.078186,100.511581 
M435.189056,138.287613 
	C439.437683,138.339966 443.764862,138.914108 447.911560,138.289612 
	C451.634186,137.728958 453.941681,134.813248 453.873047,130.770096 
	C453.805328,126.779831 451.082306,124.964005 447.634583,124.042542 
	C444.592957,123.229599 441.384155,122.892342 438.490997,121.738670 
	C437.113831,121.189499 435.429871,119.203476 435.469635,117.917282 
	C435.510712,116.586311 437.372223,114.331879 438.612030,114.206390 
	C441.962036,113.867325 445.403442,114.558037 448.811493,114.598930 
	C450.036133,114.613632 451.269043,113.939308 452.498199,113.579437 
	C446.998444,109.692596 441.490509,108.602654 436.364624,111.244186 
	C434.018860,112.453033 431.933075,115.693085 431.328461,118.372742 
	C430.548462,121.829613 433.311462,124.165543 436.645966,125.124504 
	C439.826447,126.039177 443.189148,126.406197 446.263580,127.565826 
	C447.691650,128.104507 449.711517,130.144547 449.530609,131.159561 
	C449.258728,132.684906 447.331451,135.002197 446.032410,135.053055 
	C442.181793,135.203857 438.300171,134.335052 434.417725,134.028229 
	C433.124786,133.926041 431.792786,134.317780 430.478607,134.483719 
	C430.479401,135.028412 430.480194,135.573105 430.480988,136.117798 
	C431.787445,136.763855 433.093903,137.409897 435.189056,138.287613 
M242.849274,105.176178 
	C242.849274,106.651688 242.849274,108.127197 242.849274,108.833214 
	C240.767395,109.981812 239.228760,110.830688 237.690125,111.679573 
	C239.294098,112.691895 240.898071,113.704216 242.802185,114.905975 
	C242.802185,117.191139 242.800827,119.842491 242.802597,122.493843 
	C242.804367,125.157158 242.744904,127.822426 242.825333,130.483414 
	C243.032837,137.348175 247.700012,140.869446 254.180618,138.878006 
	C255.261856,138.545731 255.996140,137.084351 256.890747,136.144714 
	C255.791809,135.935715 254.635498,135.397903 253.604446,135.577850 
	C250.168121,136.177597 247.270111,135.592529 247.051758,131.636520 
	C246.724976,125.715675 246.966843,119.763435 246.966843,113.881859 
	C254.875000,113.285881 254.875000,113.285881 255.340225,110.279892 
	C252.576477,110.110756 249.834778,109.942970 247.463638,109.797867 
	C245.924362,107.614990 249.109116,102.301582 242.849274,105.176178 
M301.043945,122.175110 
	C301.891083,117.408859 304.349548,114.401855 309.473511,113.778458 
	C310.390717,113.666855 311.114685,111.966995 311.927856,111.000473 
	C311.536255,110.472893 311.144653,109.945312 310.753052,109.417732 
	C307.528961,110.684685 304.304871,111.951645 301.601654,113.013908 
	C300.543762,112.003860 299.305908,110.821953 297.161774,108.774773 
	C297.161774,119.962173 297.161774,129.374146 297.161774,138.786118 
	C297.607422,139.036728 298.053040,139.287338 298.498688,139.537949 
	C299.314209,138.367630 300.747742,137.240753 300.833618,136.019150 
	C301.136017,131.716965 300.975861,127.382271 301.043945,122.175110 
M231.070740,138.649719 
	C231.070740,129.223495 231.070740,119.797264 231.070740,110.371033 
	C230.656342,110.095787 230.241943,109.820549 229.827545,109.545303 
	C228.958267,110.688828 227.369324,111.811836 227.336044,112.979202 
	C227.113159,120.796532 227.125320,128.626144 227.356079,136.443069 
	C227.382065,137.323563 229.249893,138.149689 231.070740,138.649719 
M231.765701,102.691917 
	C232.716797,100.162598 232.005966,98.329765 229.195694,98.397896 
	C228.306854,98.419449 226.642990,100.347916 226.750061,101.232193 
	C227.073334,103.901726 228.804245,104.733994 231.765701,102.691917 
z"/>
<path fill="#DFDEDE" opacity="1.000000" stroke="none" 
	d="
M101.630875,42.461464 
	C94.694794,48.148235 88.134247,53.705761 81.407135,59.053783 
	C79.216637,60.795219 76.591400,61.989815 74.164993,63.434513 
	C73.750885,62.923866 73.336777,62.413223 72.922668,61.902576 
	C73.713760,60.569534 74.402412,59.161896 75.310913,57.914352 
	C98.452133,26.137154 142.336288,21.007351 172.155411,46.577427 
	C173.673279,47.879013 175.216995,49.157860 176.651917,50.547230 
	C179.815964,53.610809 183.371597,54.178577 187.121109,51.964882 
	C213.336349,36.487564 249.803284,50.293743 259.180847,83.704346 
	C259.264862,84.003685 259.495209,84.261955 259.158539,83.685440 
	C272.124939,83.685440 284.584290,84.036392 297.017426,83.614403 
	C325.327728,82.653542 353.615906,80.812447 381.930847,80.288696 
	C403.879364,79.882713 425.221283,75.343300 446.841217,72.724426 
	C454.897919,71.748497 457.259399,73.189453 458.807373,81.111069 
	C459.187012,83.053696 459.248871,85.058426 459.512756,87.566055 
	C457.767883,87.672348 456.229034,87.766090 454.880737,87.848228 
	C454.478729,87.220116 454.188995,86.965912 454.150055,86.677803 
	C452.884003,77.312653 452.864227,77.177422 443.566895,78.790466 
	C413.975311,83.924477 384.088715,85.687279 354.142914,86.829544 
	C321.695465,88.067230 289.247803,89.299767 257.191040,90.519676 
	C253.747498,83.795441 250.900345,76.845139 246.884109,70.653130 
	C234.671066,51.823700 213.383240,45.557503 193.205902,55.434731 
	C183.980515,59.950748 177.476089,58.800903 169.962158,51.981915 
	C149.706467,33.599625 126.693146,30.984741 101.630875,42.461464 
z"/>
<path fill="#D9D9D9" opacity="1.000000" stroke="none" 
	d="
M65.437561,123.625519 
	C62.804783,119.192696 60.384583,115.058723 57.964382,110.924744 
	C57.584621,110.961411 57.204865,110.998070 56.825104,111.034737 
	C56.825104,116.707870 56.825214,122.381012 56.825047,128.054153 
	C56.824966,130.719391 57.083622,133.421570 56.711571,136.033875 
	C56.532890,137.288452 55.162056,138.373230 54.331104,139.534912 
	C53.794197,139.272079 53.257286,139.009262 52.720379,138.746429 
	C52.720379,132.477890 52.720383,126.209351 52.720383,119.940811 
	C52.720383,113.636642 52.720379,107.332481 52.720379,101.028313 
	C53.117840,100.712334 53.515301,100.396355 53.912762,100.080376 
	C55.263206,101.259987 57.009266,102.198738 57.898426,103.659195 
	C62.825439,111.751862 67.543991,119.971436 72.752129,128.861374 
	C77.811272,120.147545 82.538918,111.835732 87.479164,103.652252 
	C88.362724,102.188637 90.125816,101.255981 91.482811,100.078178 
	C91.918304,100.392036 92.353806,100.705894 92.789307,101.019753 
	C92.789307,112.968094 92.855339,124.917542 92.657150,136.862595 
	C92.642174,137.765305 90.747536,138.636826 89.726654,139.522858 
	C89.295792,139.208389 88.864929,138.893936 88.434067,138.579468 
	C88.434067,129.392410 88.434067,120.205353 88.434067,111.018295 
	C88.106018,110.929062 87.777969,110.839828 87.449921,110.750595 
	C83.454285,117.552452 79.481056,124.367615 75.454681,131.151215 
	C73.001633,135.284073 72.387474,135.282715 69.938087,131.242050 
	C68.472717,128.824677 67.077110,126.365013 65.437561,123.625519 
z"/>
<path fill="#DDDDDD" opacity="1.000000" stroke="none" 
	d="
M414.976166,139.003265 
	C409.729797,139.764786 405.349274,138.836380 401.947205,135.309540 
	C400.720947,136.707031 399.481293,138.119751 398.241638,139.532471 
	C397.860382,139.259094 397.479156,138.985703 397.097900,138.712311 
	C397.097900,125.446320 397.097900,112.180321 397.097900,98.689484 
	C399.667999,97.553329 401.038086,97.988419 400.965881,101.188171 
	C400.872528,105.327156 400.943146,109.469841 400.943146,114.384079 
	C406.123505,110.198624 411.622192,108.244537 417.249146,111.090530 
	C420.275391,112.621140 423.331146,115.413956 424.821106,118.409447 
	C428.994720,126.800163 424.678162,135.519302 414.976166,139.003265 
M407.709564,135.066803 
	C415.326813,136.757019 420.983124,133.479416 421.994446,126.789291 
	C423.092834,119.523018 418.821533,113.810593 412.028290,113.460632 
	C407.061920,113.204788 402.857819,116.104767 401.378052,120.807121 
	C399.607605,126.433098 401.485992,131.143646 407.709564,135.066803 
z"/>
<path fill="#DCDBDB" opacity="1.000000" stroke="none" 
	d="
M180.184448,130.690338 
	C179.588318,132.728531 179.462921,135.055603 178.319321,135.783936 
	C171.197006,140.319946 163.518600,140.767853 156.027725,136.937210 
	C148.426407,133.050095 145.262177,126.357384 145.959457,117.921356 
	C146.611099,110.037392 150.761765,104.522942 158.108475,101.754913 
	C165.984222,98.787582 173.395935,99.738052 180.072174,105.325150 
	C178.821472,109.302658 177.015961,107.511497 174.966187,106.299461 
	C168.748154,102.622757 160.674469,103.347679 155.365753,107.866699 
	C150.342300,112.142891 148.597198,119.230957 151.004791,125.579552 
	C154.308197,134.290207 165.896439,138.561783 173.953888,133.839798 
	C175.056290,133.193741 175.888672,131.325912 176.023239,129.943634 
	C176.327972,126.813347 176.119110,123.633057 176.119110,120.399696 
	C178.611252,119.419899 180.424484,119.164101 180.212524,122.752296 
	C180.065567,125.240120 180.184418,127.743645 180.184448,130.690338 
z"/>
<path fill="#D5D5D5" opacity="1.000000" stroke="none" 
	d="
M372.324432,110.001495 
	C383.337860,109.918129 386.480957,112.980522 386.584625,123.544708 
	C386.633514,128.528244 386.592987,133.512650 386.592987,139.615967 
	C384.485046,138.608292 383.071838,137.932709 382.312866,137.569885 
	C377.803986,138.053757 373.483368,139.076630 369.240662,138.818436 
	C364.828339,138.549957 361.855072,134.558136 362.166748,130.560074 
	C362.513916,126.106171 365.214417,123.679535 369.490784,123.022331 
	C371.455841,122.720329 373.474915,122.735504 375.471497,122.682465 
	C377.467102,122.629440 379.465240,122.670822 382.835815,122.670822 
	C381.851746,119.885361 381.720428,116.793182 380.131317,115.518578 
	C375.088409,111.473785 369.815125,114.041298 364.823669,116.343224 
	C363.013794,112.756485 364.115967,111.807182 372.324432,110.001495 
M367.350616,127.664383 
	C365.203888,131.056656 366.009888,133.730789 369.547424,135.381790 
	C376.214355,138.493286 382.764343,133.678955 381.917755,125.327698 
	C377.275635,125.928627 372.625244,126.530632 367.350616,127.664383 
z"/>
<path fill="#D9D9D9" opacity="1.000000" stroke="none" 
	d="
M286.206757,131.843872 
	C286.206757,134.301666 286.206757,136.294266 286.206757,139.557785 
	C284.190308,138.551926 282.748444,137.832672 281.917938,137.418411 
	C277.762939,137.961792 273.621155,139.065414 269.533661,138.891617 
	C264.739990,138.687820 261.864899,134.969467 261.995453,130.619995 
	C262.121613,126.418037 264.859650,123.442322 269.672821,123.024704 
	C273.595490,122.684364 277.571198,122.955505 283.231384,122.955505 
	C281.607513,119.525742 281.124512,116.331375 279.306610,115.086823 
	C274.475800,111.779572 269.488403,113.847389 263.422607,117.080711 
	C263.924042,114.890961 263.797302,113.297150 264.514160,112.674362 
	C268.212769,109.461197 277.665253,108.601807 281.461273,111.705467 
	C283.644775,113.490707 285.335510,116.645775 285.901398,119.455444 
	C286.674622,123.294617 286.165924,127.391991 286.206757,131.843872 
M278.853394,134.540558 
	C281.828888,132.345139 282.962494,129.595367 281.640076,125.997665 
	C277.768433,125.997665 274.031372,125.520081 270.519257,126.201675 
	C268.795471,126.536224 266.367371,128.973267 266.300659,130.545456 
	C266.230194,132.205582 268.313934,135.007416 269.954590,135.445450 
	C272.461456,136.114731 275.395752,135.183014 278.853394,134.540558 
z"/>
<path fill="#D7D7D7" opacity="1.000000" stroke="none" 
	d="
M194.306610,111.747902 
	C194.363297,117.171272 194.187836,122.169044 194.473541,127.140312 
	C194.791382,132.671143 197.458450,135.329956 202.337845,135.652023 
	C207.532639,135.994919 211.703476,133.203064 212.220200,127.946884 
	C212.784790,122.203751 212.348557,116.362228 212.348557,110.563591 
	C212.875443,110.246696 213.402328,109.929810 213.929214,109.612915 
	C214.904129,110.631172 216.697327,111.627769 216.724945,112.671097 
	C216.953033,121.288048 216.853958,129.913666 216.853958,138.536652 
	C216.453049,138.843353 216.052155,139.150040 215.651245,139.456726 
	C214.435959,138.325974 213.220673,137.195221 212.172836,136.220276 
	C209.526733,137.114655 206.397476,138.846344 203.139404,139.137787 
	C195.600571,139.812195 190.998047,135.887329 190.440994,128.364868 
	C190.002319,122.441055 190.352875,116.458801 190.352875,109.564522 
	C192.046967,110.318161 193.162415,110.814384 194.306610,111.747902 
z"/>
<path fill="#D7D7D7" opacity="1.000000" stroke="none" 
	d="
M108.754700,123.160233 
	C110.379959,126.794525 111.846474,130.084045 113.725449,134.298737 
	C117.100304,126.702293 120.008095,119.868851 123.209328,113.175751 
	C123.916069,111.698112 125.662041,110.717522 126.929474,109.508057 
	C127.409683,109.894043 127.889885,110.280037 128.370087,110.666023 
	C123.101768,122.230156 118.053635,133.902252 112.461372,145.307556 
	C110.083031,150.158127 103.735558,151.509842 99.494522,148.793564 
	C98.744659,148.313309 98.484703,147.068100 97.998512,146.176147 
	C98.926506,145.922729 100.025452,145.218582 100.752716,145.494400 
	C103.797081,146.649063 106.563988,146.978699 108.873009,144.146790 
	C111.327576,141.136368 111.497070,138.156891 109.721642,134.523895 
	C105.879845,126.662567 102.494156,118.578339 98.411522,109.443237 
	C106.481346,111.470642 105.397209,118.756157 108.754700,123.160233 
z"/>
<path fill="#D2D2D2" opacity="1.000000" stroke="none" 
	d="
M355.527283,100.512192 
	C357.115631,101.261360 358.254883,102.009911 359.394165,102.758469 
	C359.129761,103.246574 358.865356,103.734688 358.600952,104.222801 
	C354.478302,104.222801 350.355652,104.222801 345.719208,104.222801 
	C345.719208,114.809189 345.634583,125.108467 345.770081,135.404846 
	C345.811432,138.547577 344.914124,139.829590 341.227234,138.532364 
	C341.227234,127.298294 341.227234,115.863602 341.227234,104.146545 
	C336.588776,104.146545 332.463531,104.146545 328.338287,104.146545 
	C328.086243,103.651711 327.834229,103.156883 327.582184,102.662048 
	C328.752319,101.945580 329.908752,100.635796 331.094757,100.608452 
	C339.085724,100.424240 347.082977,100.511940 355.527283,100.512192 
z"/>
<path fill="#DADADA" opacity="1.000000" stroke="none" 
	d="
M434.794708,138.171783 
	C433.093903,137.409897 431.787445,136.763855 430.480988,136.117798 
	C430.480194,135.573105 430.479401,135.028412 430.478607,134.483719 
	C431.792786,134.317780 433.124786,133.926041 434.417725,134.028229 
	C438.300171,134.335052 442.181793,135.203857 446.032410,135.053055 
	C447.331451,135.002197 449.258728,132.684906 449.530609,131.159561 
	C449.711517,130.144547 447.691650,128.104507 446.263580,127.565826 
	C443.189148,126.406197 439.826447,126.039177 436.645966,125.124504 
	C433.311462,124.165543 430.548462,121.829613 431.328461,118.372742 
	C431.933075,115.693085 434.018860,112.453033 436.364624,111.244186 
	C441.490509,108.602654 446.998444,109.692596 452.498199,113.579437 
	C451.269043,113.939308 450.036133,114.613632 448.811493,114.598930 
	C445.403442,114.558037 441.962036,113.867325 438.612030,114.206390 
	C437.372223,114.331879 435.510712,116.586311 435.469635,117.917282 
	C435.429871,119.203476 437.113831,121.189499 438.490997,121.738670 
	C441.384155,122.892342 444.592957,123.229599 447.634583,124.042542 
	C451.082306,124.964005 453.805328,126.779831 453.873047,130.770096 
	C453.941681,134.813248 451.634186,137.728958 447.911560,138.289612 
	C443.764862,138.914108 439.437683,138.339966 434.794708,138.171783 
z"/>
<path fill="#D7D7D7" opacity="1.000000" stroke="none" 
	d="
M242.949173,104.749969 
	C249.109116,102.301582 245.924362,107.614990 247.463638,109.797867 
	C249.834778,109.942970 252.576477,110.110756 255.340225,110.279892 
	C254.875000,113.285881 254.875000,113.285881 246.966843,113.881859 
	C246.966843,119.763435 246.724976,125.715675 247.051758,131.636520 
	C247.270111,135.592529 250.168121,136.177597 253.604446,135.577850 
	C254.635498,135.397903 255.791809,135.935715 256.890747,136.144714 
	C255.996140,137.084351 255.261856,138.545731 254.180618,138.878006 
	C247.700012,140.869446 243.032837,137.348175 242.825333,130.483414 
	C242.744904,127.822426 242.804367,125.157158 242.802597,122.493843 
	C242.800827,119.842491 242.802185,117.191139 242.802185,114.905975 
	C240.898071,113.704216 239.294098,112.691895 237.690125,111.679573 
	C239.228760,110.830688 240.767395,109.981812 242.849274,108.833214 
	C242.849274,108.127197 242.849274,106.651688 242.949173,104.749969 
z"/>
<path fill="#DCDCDC" opacity="1.000000" stroke="none" 
	d="
M301.017578,122.617508 
	C300.975861,127.382271 301.136017,131.716965 300.833618,136.019150 
	C300.747742,137.240753 299.314209,138.367630 298.498688,139.537949 
	C298.053040,139.287338 297.607422,139.036728 297.161774,138.786118 
	C297.161774,129.374146 297.161774,119.962173 297.161774,108.774773 
	C299.305908,110.821953 300.543762,112.003860 301.601654,113.013908 
	C304.304871,111.951645 307.528961,110.684685 310.753052,109.417732 
	C311.144653,109.945312 311.536255,110.472893 311.927856,111.000473 
	C311.114685,111.966995 310.390717,113.666855 309.473511,113.778458 
	C304.349548,114.401855 301.891083,117.408859 301.017578,122.617508 
z"/>
<path fill="#D4D4D4" opacity="1.000000" stroke="none" 
	d="
M230.667175,138.825378 
	C229.249893,138.149689 227.382065,137.323563 227.356079,136.443069 
	C227.125320,128.626144 227.113159,120.796532 227.336044,112.979202 
	C227.369324,111.811836 228.958267,110.688828 229.827545,109.545303 
	C230.241943,109.820549 230.656342,110.095787 231.070740,110.371033 
	C231.070740,119.797264 231.070740,129.223495 230.667175,138.825378 
z"/>
<path fill="#D3D2D2" opacity="1.000000" stroke="none" 
	d="
M231.513153,102.918259 
	C228.804245,104.733994 227.073334,103.901726 226.750061,101.232193 
	C226.642990,100.347916 228.306854,98.419449 229.195694,98.397896 
	C232.005966,98.329765 232.716797,100.162598 231.513153,102.918259 
z"/>
<path fill="#211E1C" opacity="1.000000" stroke="none" 
	d="
M407.341614,134.953247 
	C401.485992,131.143646 399.607605,126.433098 401.378052,120.807121 
	C402.857819,116.104767 407.061920,113.204788 412.028290,113.460632 
	C418.821533,113.810593 423.092834,119.523018 421.994446,126.789291 
	C420.983124,133.479416 415.326813,136.757019 407.341614,134.953247 
z"/>
<path fill="#201D1B" opacity="1.000000" stroke="none" 
	d="
M367.662720,127.398514 
	C372.625244,126.530632 377.275635,125.928627 381.917755,125.327698 
	C382.764343,133.678955 376.214355,138.493286 369.547424,135.381790 
	C366.009888,133.730789 365.203888,131.056656 367.662720,127.398514 
z"/>
<path fill="#201D1B" opacity="1.000000" stroke="none" 
	d="
M278.500977,134.735779 
	C275.395752,135.183014 272.461456,136.114731 269.954590,135.445450 
	C268.313934,135.007416 266.230194,132.205582 266.300659,130.545456 
	C266.367371,128.973267 268.795471,126.536224 270.519257,126.201675 
	C274.031372,125.520081 277.768433,125.997665 281.640076,125.997665 
	C282.962494,129.595367 281.828888,132.345139 278.500977,134.735779 
z"/>
</svg>